<svg width="24" height="24" viewBox="0 0 24 24" fill="none" xmlns="http://www.w3.org/2000/svg">
<g id="Union">
<path d="M14.1988 3.78814C14.1966 3.38287 14.523 3.05256 14.9278 3.05037L20.3314 3.02113C20.7361 3.01894 21.0661 3.34569 21.0682 3.75096C21.0704 4.15623 20.7441 4.48654 20.3393 4.48873L14.9357 4.51798C14.5309 4.52017 14.201 4.19341 14.1988 3.78814Z" fill="black"/>
<path d="M4.52695 3.76978C4.52695 4.19095 4.18593 4.53237 3.76527 4.53237C3.34461 4.53237 3.00359 4.19095 3.00359 3.76978C3.00359 3.34862 3.34461 3.00719 3.76527 3.00719C4.18593 3.00719 4.52695 3.34862 4.52695 3.76978Z" fill="black"/>
<path d="M6.78323 4.53237C7.2039 4.53237 7.54491 4.19095 7.54491 3.76978C7.54491 3.34862 7.2039 3.00719 6.78323 3.00719C6.36257 3.00719 6.02156 3.34862 6.02156 3.76978C6.02156 4.19095 6.36257 4.53237 6.78323 4.53237Z" fill="black"/>
<path d="M7.57842 11.4855C7.87015 11.2046 8.33414 11.2136 8.61475 11.5057C8.89537 11.7978 8.88636 12.2623 8.59463 12.5432L6.11777 14.9286L8.67422 17.4643C8.96178 17.7495 8.96395 18.2142 8.67906 18.5021C8.39417 18.79 7.93011 18.7921 7.64255 18.5069L4.65731 15.5459C4.30749 15.1989 4.31167 14.6316 4.66656 14.2898L7.57842 11.4855Z" fill="black"/>
<path d="M16.3165 11.5287C16.0248 11.2477 15.5608 11.2568 15.2802 11.5488C14.9995 11.8409 15.0085 12.3055 15.3003 12.5864L17.7771 14.9718L15.2207 17.5075C14.9331 17.7927 14.931 18.2573 15.2158 18.5452C15.5007 18.8331 15.9648 18.8353 16.2524 18.5501L19.2376 15.5891C19.5874 15.2421 19.5832 14.6748 19.2284 14.333L16.3165 11.5287Z" fill="black"/>
<path d="M14.1001 10.7911C14.2251 10.4056 14.0145 9.99164 13.6295 9.8664C13.2445 9.74116 12.831 9.9521 12.7059 10.3375L9.78487 19.3384C9.65979 19.7239 9.87047 20.1378 10.2554 20.2631C10.6404 20.3883 11.0539 20.1774 11.179 19.7919L14.1001 10.7911Z" fill="black"/>
<path fill-rule="evenodd" clip-rule="evenodd" d="M0 3.61151C0 1.61693 1.61499 0 3.60719 0H20.3928C22.385 0 24 1.61693 24 3.61151V20.3885C24 22.3831 22.385 24 20.3928 24H3.60719C1.61499 24 0 22.3831 0 20.3885V3.61151ZM3.60719 1.46763C2.42457 1.46763 1.46587 2.42748 1.46587 3.61151V6.05755L22.5341 6.05756V3.61151C22.5341 2.42748 21.5754 1.46763 20.3928 1.46763H3.60719ZM22.5341 7.52518L1.46587 7.52518V20.3885C1.46587 21.5725 2.42457 22.5324 3.60719 22.5324H20.3928C21.5754 22.5324 22.5341 21.5725 22.5341 20.3885V7.52518Z" fill="black"/>
</g>
</svg>
